<?xml version="1.0" encoding="UTF-8" standalone="no"?><svg xmlns="http://www.w3.org/2000/svg" xmlns:xlink="http://www.w3.org/1999/xlink" contentStyleType="text/css" height="1128px" preserveAspectRatio="none" style="width:733px;height:1128px;background:#FFFFFF;" version="1.1" viewBox="0 0 733 1128" width="733px" zoomAndPan="magnify"><defs/><g><!--MD5=[7f30d566a142617f8c9391e4388deb25]
cluster PowerSupplyTerminal--><g id="cluster_PowerSupplyTerminal"><path d="M419.5,7 L583.5,7 A12.5,12.5 0 0 1 596,19.5 L596,33.4883 L407,33.4883 L407,19.5 A12.5,12.5 0 0 1 419.5,7 " fill="#F1F1F1" style="stroke:#F1F1F1;stroke-width:1.0;"/><rect height="101.72" rx="12.5" ry="12.5" style="stroke:#181818;stroke-width:0.5;fill:none;" width="189" x="407" y="7"/><line style="stroke:#181818;stroke-width:0.5;fill:none;" x1="407" x2="596" y1="33.4883" y2="33.4883"/><text fill="#000000" font-family="sans-serif" font-size="14" lengthAdjust="spacing" textLength="149" x="427" y="25.5352">PowerSupplyTerminal</text></g><!--MD5=[b60c2a3f1385b78cef881aa16563e99a]
cluster VoltageConverter--><g id="cluster_VoltageConverter"><path d="M183.5,241.72 L300.5,241.72 A12.5,12.5 0 0 1 313,254.22 L313,268.2083 L171,268.2083 L171,254.22 A12.5,12.5 0 0 1 183.5,241.72 " fill="#F1F1F1" style="stroke:#F1F1F1;stroke-width:1.0;"/><rect height="133" rx="12.5" ry="12.5" style="stroke:#181818;stroke-width:0.5;fill:none;" width="142" x="171" y="241.72"/><line style="stroke:#181818;stroke-width:0.5;fill:none;" x1="171" x2="313" y1="268.2083" y2="268.2083"/><text fill="#000000" font-family="sans-serif" font-size="14" lengthAdjust="spacing" textLength="120" x="182" y="260.2552">VoltageConverter</text></g><!--MD5=[cd0eefbb562b473afacadb739c751193]
cluster BluePillSTM32F103--><g id="cluster_BluePillSTM32F103"><path d="M19.5,507.72 L294.5,507.72 A12.5,12.5 0 0 1 307,520.22 L307,534.2083 L7,534.2083 L7,520.22 A12.5,12.5 0 0 1 19.5,507.72 " fill="#F1F1F1" style="stroke:#F1F1F1;stroke-width:1.0;"/><rect height="133" rx="12.5" ry="12.5" style="stroke:#181818;stroke-width:0.5;fill:none;" width="300" x="7" y="507.72"/><line style="stroke:#181818;stroke-width:0.5;fill:none;" x1="7" x2="307" y1="534.2083" y2="534.2083"/><text fill="#000000" font-family="sans-serif" font-size="14" lengthAdjust="spacing" textLength="131" x="91.5" y="526.2552">BluePillSTM32F103</text></g><!--MD5=[e5472d7090455a624aed00ddb735169d]
cluster GPSModule--><g id="cluster_GPSModule"><path d="M81.5,773.72 L233.5,773.72 A12.5,12.5 0 0 1 246,786.22 L246,800.2083 L69,800.2083 L69,786.22 A12.5,12.5 0 0 1 81.5,773.72 " fill="#F1F1F1" style="stroke:#F1F1F1;stroke-width:1.0;"/><rect height="82.86" rx="12.5" ry="12.5" style="stroke:#181818;stroke-width:0.5;fill:none;" width="177" x="69" y="773.72"/><line style="stroke:#181818;stroke-width:0.5;fill:none;" x1="69" x2="246" y1="800.2083" y2="800.2083"/><text fill="#000000" font-family="sans-serif" font-size="14" lengthAdjust="spacing" textLength="77" x="119" y="792.2552">GPSModule</text></g><!--MD5=[8499e7fa35b6e49ac803d369ae24d4fe]
cluster PWMAmplifier--><g id="cluster_PWMAmplifier"><path d="M396.5,773.72 L548.5,773.72 A12.5,12.5 0 0 1 561,786.22 L561,800.2083 L384,800.2083 L384,786.22 A12.5,12.5 0 0 1 396.5,773.72 " fill="#F1F1F1" style="stroke:#F1F1F1;stroke-width:1.0;"/><rect height="133" rx="12.5" ry="12.5" style="stroke:#181818;stroke-width:0.5;fill:none;" width="177" x="384" y="773.72"/><line style="stroke:#181818;stroke-width:0.5;fill:none;" x1="384" x2="561" y1="800.2083" y2="800.2083"/><text fill="#000000" font-family="sans-serif" font-size="14" lengthAdjust="spacing" textLength="95" x="425" y="792.2552">PWMAmplifier</text></g><!--MD5=[d194ba8745eeb6b55b3fa0fd5e9d2acd]
cluster LEDOutputTerminal--><g id="cluster_LEDOutputTerminal"><path d="M558.5,1039.72 L707.5,1039.72 A12.5,12.5 0 0 1 720,1052.22 L720,1066.2083 L546,1066.2083 L546,1052.22 A12.5,12.5 0 0 1 558.5,1039.72 " fill="#F1F1F1" style="stroke:#F1F1F1;stroke-width:1.0;"/><rect height="82.72" rx="12.5" ry="12.5" style="stroke:#181818;stroke-width:0.5;fill:none;" width="174" x="546" y="1039.72"/><line style="stroke:#181818;stroke-width:0.5;fill:none;" x1="546" x2="720" y1="1066.2083" y2="1066.2083"/><text fill="#000000" font-family="sans-serif" font-size="14" lengthAdjust="spacing" textLength="134" x="566" y="1058.2552">LEDOutputTerminal</text></g><text fill="#000000" font-family="sans-serif" font-size="14" lengthAdjust="spacing" textLength="30" x="410" y="128.2552">GND</text><ellipse cx="425" cy="108.72" fill="#F1F1F1" rx="6" ry="6" style="stroke:#181818;stroke-width:1.5;"/><line style="stroke:#181818;stroke-width:1.5;" x1="429.3891" x2="421.6109" y1="113.1091" y2="105.3309"/><line style="stroke:#181818;stroke-width:1.5;" x1="429.3891" x2="421.6109" y1="105.3309" y2="113.1091"/><text fill="#000000" font-family="sans-serif" font-size="14" lengthAdjust="spacing" textLength="27" x="564.5" y="128.2552">12V</text><ellipse cx="578" cy="108.72" fill="#F1F1F1" rx="6" ry="6" style="stroke:#181818;stroke-width:1.5;"/><line style="stroke:#181818;stroke-width:1.5;" x1="582.3891" x2="574.6109" y1="113.1091" y2="105.3309"/><line style="stroke:#181818;stroke-width:1.5;" x1="582.3891" x2="574.6109" y1="105.3309" y2="113.1091"/><text fill="#000000" font-family="sans-serif" font-size="14" lengthAdjust="spacing" textLength="30" x="233" y="220.7669">GND</text><ellipse cx="248" cy="241.72" fill="#F1F1F1" rx="6" ry="6" style="stroke:#181818;stroke-width:1.5;"/><text fill="#000000" font-family="sans-serif" font-size="14" lengthAdjust="spacing" textLength="27" x="281.5" y="220.7669">12V</text><ellipse cx="295" cy="241.72" fill="#F1F1F1" rx="6" ry="6" style="stroke:#181818;stroke-width:1.5;"/><text fill="#000000" font-family="sans-serif" font-size="14" lengthAdjust="spacing" textLength="30" x="174" y="394.2552">GND</text><ellipse cx="189" cy="374.72" fill="#F1F1F1" rx="6" ry="6" style="stroke:#181818;stroke-width:1.5;"/><line style="stroke:#181818;stroke-width:1.5;" x1="193.3891" x2="185.6109" y1="379.1091" y2="371.3309"/><line style="stroke:#181818;stroke-width:1.5;" x1="193.3891" x2="185.6109" y1="371.3309" y2="379.1091"/><text fill="#000000" font-family="sans-serif" font-size="14" lengthAdjust="spacing" textLength="18" x="266" y="394.2552">5V</text><ellipse cx="275" cy="374.72" fill="#F1F1F1" rx="6" ry="6" style="stroke:#181818;stroke-width:1.5;"/><line style="stroke:#181818;stroke-width:1.5;" x1="279.3891" x2="271.6109" y1="379.1091" y2="371.3309"/><line style="stroke:#181818;stroke-width:1.5;" x1="279.3891" x2="271.6109" y1="371.3309" y2="379.1091"/><text fill="#000000" font-family="sans-serif" font-size="14" lengthAdjust="spacing" textLength="30" x="174" y="486.7669">GND</text><ellipse cx="189" cy="507.72" fill="#F1F1F1" rx="6" ry="6" style="stroke:#181818;stroke-width:1.5;"/><text fill="#000000" font-family="sans-serif" font-size="14" lengthAdjust="spacing" textLength="18" x="266" y="486.7669">5V</text><ellipse cx="275" cy="507.72" fill="#F1F1F1" rx="6" ry="6" style="stroke:#181818;stroke-width:1.5;"/><text fill="#000000" font-family="sans-serif" font-size="14" lengthAdjust="spacing" textLength="27" x="11.5" y="660.2552">3V3</text><ellipse cx="25" cy="640.72" fill="#F1F1F1" rx="6" ry="6" style="stroke:#181818;stroke-width:1.5;"/><line style="stroke:#181818;stroke-width:1.5;" x1="29.3891" x2="21.6109" y1="645.1091" y2="637.3309"/><line style="stroke:#181818;stroke-width:1.5;" x1="29.3891" x2="21.6109" y1="637.3309" y2="645.1091"/><text fill="#000000" font-family="sans-serif" font-size="14" lengthAdjust="spacing" textLength="75" x="251.5" y="660.2552">PA1 pin 11</text><ellipse cx="289" cy="640.72" fill="#F1F1F1" rx="6" ry="6" style="stroke:#181818;stroke-width:1.5;"/><line style="stroke:#181818;stroke-width:1.5;" x1="293.3891" x2="285.6109" y1="645.1091" y2="637.3309"/><line style="stroke:#181818;stroke-width:1.5;" x1="293.3891" x2="285.6109" y1="637.3309" y2="645.1091"/><text fill="#000000" font-family="sans-serif" font-size="14" lengthAdjust="spacing" textLength="68" x="75" y="660.2552">PA2 (TX2)</text><text fill="#000000" font-family="sans-serif" font-size="14" lengthAdjust="spacing" textLength="44" x="89" y="676.7434">pin 12</text><ellipse cx="113" cy="640.72" fill="#F1F1F1" rx="6" ry="6" style="stroke:#181818;stroke-width:1.5;"/><line style="stroke:#181818;stroke-width:1.5;" x1="117.3891" x2="109.6109" y1="645.1091" y2="637.3309"/><line style="stroke:#181818;stroke-width:1.5;" x1="117.3891" x2="109.6109" y1="637.3309" y2="645.1091"/><text fill="#000000" font-family="sans-serif" font-size="14" lengthAdjust="spacing" textLength="68" x="163" y="660.2552">PA3 (RX2)</text><text fill="#000000" font-family="sans-serif" font-size="14" lengthAdjust="spacing" textLength="44" x="177" y="676.7434">pin 13</text><ellipse cx="201" cy="640.72" fill="#F1F1F1" rx="6" ry="6" style="stroke:#181818;stroke-width:1.5;"/><line style="stroke:#181818;stroke-width:1.5;" x1="205.3891" x2="197.6109" y1="645.1091" y2="637.3309"/><line style="stroke:#181818;stroke-width:1.5;" x1="205.3891" x2="197.6109" y1="637.3309" y2="645.1091"/><text fill="#000000" font-family="sans-serif" font-size="14" lengthAdjust="spacing" textLength="30" x="213" y="752.7669">GND</text><ellipse cx="228" cy="773.72" fill="#F1F1F1" rx="6" ry="6" style="stroke:#181818;stroke-width:1.5;"/><text fill="#000000" font-family="sans-serif" font-size="14" lengthAdjust="spacing" textLength="27" x="73.5" y="752.7669">3V3</text><ellipse cx="87" cy="773.72" fill="#F1F1F1" rx="6" ry="6" style="stroke:#181818;stroke-width:1.5;"/><text fill="#000000" font-family="sans-serif" font-size="14" lengthAdjust="spacing" textLength="18" x="172" y="752.7669">RX</text><ellipse cx="181" cy="773.72" fill="#F1F1F1" rx="6" ry="6" style="stroke:#181818;stroke-width:1.5;"/><text fill="#000000" font-family="sans-serif" font-size="14" lengthAdjust="spacing" textLength="18" x="125" y="752.7669">TX</text><ellipse cx="134" cy="773.72" fill="#F1F1F1" rx="6" ry="6" style="stroke:#181818;stroke-width:1.5;"/><text fill="#000000" font-family="sans-serif" font-size="14" lengthAdjust="spacing" textLength="54" x="422" y="752.7669">GND sig</text><ellipse cx="449" cy="773.72" fill="#F1F1F1" rx="6" ry="6" style="stroke:#181818;stroke-width:1.5;"/><text fill="#000000" font-family="sans-serif" font-size="14" lengthAdjust="spacing" textLength="30" x="481" y="752.7669">GND</text><ellipse cx="496" cy="773.72" fill="#F1F1F1" rx="6" ry="6" style="stroke:#181818;stroke-width:1.5;"/><text fill="#000000" font-family="sans-serif" font-size="14" lengthAdjust="spacing" textLength="27" x="529.5" y="752.7669">12V</text><ellipse cx="543" cy="773.72" fill="#F1F1F1" rx="6" ry="6" style="stroke:#181818;stroke-width:1.5;"/><text fill="#000000" font-family="sans-serif" font-size="14" lengthAdjust="spacing" textLength="49" x="377.5" y="752.7669">PWM in</text><ellipse cx="402" cy="773.72" fill="#F1F1F1" rx="6" ry="6" style="stroke:#181818;stroke-width:1.5;"/><text fill="#000000" font-family="sans-serif" font-size="14" lengthAdjust="spacing" textLength="69" x="508.5" y="926.2552">OE output</text><ellipse cx="543" cy="906.72" fill="#F1F1F1" rx="6" ry="6" style="stroke:#181818;stroke-width:1.5;"/><line style="stroke:#181818;stroke-width:1.5;" x1="547.3891" x2="539.6109" y1="911.1091" y2="903.3309"/><line style="stroke:#181818;stroke-width:1.5;" x1="547.3891" x2="539.6109" y1="903.3309" y2="911.1091"/><text fill="#000000" font-family="sans-serif" font-size="14" lengthAdjust="spacing" textLength="30" x="549" y="1018.7669">GND</text><ellipse cx="564" cy="1039.72" fill="#F1F1F1" rx="6" ry="6" style="stroke:#181818;stroke-width:1.5;"/><text fill="#000000" font-family="sans-serif" font-size="14" lengthAdjust="spacing" textLength="27" x="688.5" y="1018.7669">12V</text><ellipse cx="702" cy="1039.72" fill="#F1F1F1" rx="6" ry="6" style="stroke:#181818;stroke-width:1.5;"/><!--MD5=[8b00e238dc18c6161e72168525cfb283]
link psOutGND to vcInGND--><g id="link_psOutGND_vcInGND"><path d="M420.04,112.8 C405.54,121.84 362.14,149.29 328,174.72 C300.78,194.99 270.27,221.19 256.07,233.6 " fill="none" id="psOutGND-to-vcInGND" style="stroke:#181818;stroke-width:1.0;"/><polygon fill="#181818" points="252.21,236.99,261.6117,234.0561,255.9667,233.6904,256.3324,228.0454,252.21,236.99" style="stroke:#181818;stroke-width:1.0;"/></g><!--MD5=[8bc6aa5c758a3cf75780fda4d448853f]
link psOut12V to vcIn12V--><g id="link_psOut12V_vcIn12V"><path d="M572.85,112.11 C539.16,127.7 350.29,215.13 304.84,236.17 " fill="none" id="psOut12V-to-vcIn12V" style="stroke:#181818;stroke-width:1.0;"/><polygon fill="#181818" points="300.03,238.39,309.8778,238.2444,304.5685,236.292,306.521,230.9828,300.03,238.39" style="stroke:#181818;stroke-width:1.0;"/></g><!--MD5=[51773dcbd2bde67ccabba7a921728e38]
link vcOutGND to bpInGND--><g id="link_vcOutGND_bpInGND"><path d="M189,381.02 C189,400.69 189,469.75 189,496.26 " fill="none" id="vcOutGND-to-bpInGND" style="stroke:#181818;stroke-width:1.0;"/><polygon fill="#181818" points="189,501.5,193,492.5,189,496.5,185,492.5,189,501.5" style="stroke:#181818;stroke-width:1.0;"/></g><!--MD5=[29358ab03b89e39d2ce85e7696dfcb8f]
link vcOut5V to bpIn5V--><g id="link_vcOut5V_bpIn5V"><path d="M275,381.02 C275,400.69 275,469.75 275,496.26 " fill="none" id="vcOut5V-to-bpIn5V" style="stroke:#181818;stroke-width:1.0;"/><polygon fill="#181818" points="275,501.5,279,492.5,275,496.5,271,492.5,275,501.5" style="stroke:#181818;stroke-width:1.0;"/></g><!--MD5=[33d6311c549fab73ba3a0c334bcf0adb]
link psOutGND to gmInGND--><g id="link_psOutGND_gmInGND"><path d="M421.18,113.39 C406.44,127.97 354,183.81 354,240.72 C354,240.72 354,240.72 354,641.72 C354,708.56 267.74,754.48 237.96,768.33 " fill="none" id="psOutGND-to-gmInGND" style="stroke:#181818;stroke-width:1.0;"/><polygon fill="#181818" points="233.1,770.55,242.9485,770.4672,237.6518,768.481,239.6381,763.1843,233.1,770.55" style="stroke:#181818;stroke-width:1.0;"/></g><!--MD5=[532986f05988881923bf2e8ddcacb3f9]
link bpOut3V3 to gmIn3V3--><g id="link_bpOut3V3_gmIn3V3"><path d="M27.21,646.38 C36.19,665.36 70.11,737.03 82.46,763.13 " fill="none" id="bpOut3V3-to-gmIn3V3" style="stroke:#181818;stroke-width:1.0;"/><polygon fill="#181818" points="84.76,767.98,84.5262,758.1339,82.6214,763.4604,77.2949,761.5557,84.76,767.98" style="stroke:#181818;stroke-width:1.0;"/></g><!--MD5=[7a59081a1de76093156aa6838c77b0cb]
link bpOutTX to gmInTX--><g id="link_bpOutTX_gmInTX"><path d="M113.8,646.7 C116.89,665.99 128.13,736.09 132.37,762.53 " fill="none" id="bpOutTX-to-gmInTX" style="stroke:#181818;stroke-width:1.0;"/><polygon fill="#181818" points="133.2,767.74,135.7375,758.2236,132.4151,762.802,127.8367,759.4796,133.2,767.74" style="stroke:#181818;stroke-width:1.0;"/></g><!--MD5=[60adbc7bc6242f322f92f50f3a958dac]
link bpOutRX to gmInRX--><g id="link_bpOutRX_gmInRX"><path d="M200.24,646.7 C197.3,665.99 186.59,736.09 182.56,762.53 " fill="none" id="bpOutRX-to-gmInRX" style="stroke:#181818;stroke-width:1.0;"/><polygon fill="#181818" points="181.76,767.74,187.0766,759.4494,182.5171,762.7976,179.1688,758.2381,181.76,767.74" style="stroke:#181818;stroke-width:1.0;"/></g><!--MD5=[c4b397b809c51cd51c09148a7c444108]
link psOutGND to paInGND--><g id="link_psOutGND_paInGND"><path d="M428.82,113.39 C443.56,127.97 496,183.81 496,240.72 C496,240.72 496,240.72 496,641.72 C496,686.61 496,740.14 496,762.31 " fill="none" id="psOutGND-to-paInGND" style="stroke:#181818;stroke-width:1.0;"/><polygon fill="#181818" points="496,767.48,500,758.48,496,762.48,492,758.48,496,767.48" style="stroke:#181818;stroke-width:1.0;"/></g><!--MD5=[1ba0df436b51684ea33c9a6e50685512]
link psOutGND to paInSigGND--><g id="link_psOutGND_paInSigGND"><path d="M425,114.96 C425,132.66 425,191.82 425,240.72 C425,240.72 425,240.72 425,641.72 C425,687.57 439.4,740.98 445.89,762.74 " fill="none" id="psOutGND-to-paInSigGND" style="stroke:#181818;stroke-width:1.0;"/><polygon fill="#181818" points="447.43,767.78,448.6269,758.0041,445.9696,762.998,440.9758,760.3407,447.43,767.78" style="stroke:#181818;stroke-width:1.0;"/></g><!--MD5=[3d43f279662394b895bad0eaae107806]
link psOut12V to paIn12V--><g id="link_psOut12V_paIn12V"><path d="M581.57,113.92 C594.49,129.53 638,186.19 638,240.72 C638,240.72 638,240.72 638,641.72 C638,700.19 575.21,750.17 551.72,766.82 " fill="none" id="psOut12V-to-paIn12V" style="stroke:#181818;stroke-width:1.0;"/><polygon fill="#181818" points="547.58,769.7,557.2539,767.8519,551.6868,766.848,552.6907,761.281,547.58,769.7" style="stroke:#181818;stroke-width:1.0;"/></g><!--MD5=[c58b8accb0dd09ae902fd57375d26eb3]
link bpOutPWM to paInPWN--><g id="link_bpOutPWM_paInPWN"><path d="M292.51,645.78 C308.36,664.16 373.49,739.67 395.04,764.65 " fill="none" id="bpOutPWM-to-paInPWN" style="stroke:#181818;stroke-width:1.0;"/><polygon fill="#181818" points="398.54,768.7,395.6819,759.275,395.2708,764.9168,389.6289,764.5057,398.54,768.7" style="stroke:#181818;stroke-width:1.0;"/></g><!--MD5=[d870d5920fb328f05a543cb76a6d52fb]
link paOutOE to lotInGND--><g id="link_paOutOE_lotInGND"><path d="M543.8,912.7 C546.89,931.99 558.13,1002.09 562.37,1028.53 " fill="none" id="paOutOE-to-lotInGND" style="stroke:#181818;stroke-width:1.0;"/><polygon fill="#181818" points="563.2,1033.74,565.7375,1024.2236,562.4151,1028.802,557.8367,1025.4796,563.2,1033.74" style="stroke:#181818;stroke-width:1.0;"/></g><!--MD5=[66a7f180e56cc313d1c5def269527dc6]
link psOut12V to lotIn12V--><g id="link_psOut12V_lotIn12V"><path d="M583.3,111.83 C607.81,122 709,168.35 709,240.72 C709,240.72 709,240.72 709,907.72 C709,952.88 704.8,1006.67 702.91,1028.63 " fill="none" id="psOut12V-to-lotIn12V" style="stroke:#181818;stroke-width:1.0;"/><polygon fill="#181818" points="702.46,1033.73,707.2406,1025.1192,702.9024,1028.7496,699.272,1024.4114,702.46,1033.73" style="stroke:#181818;stroke-width:1.0;"/></g><!--MD5=[a407697a8f081a3a0d007859b3b39492]
@startuml circuit

state PowerSupplyTerminal {
  state "GND" as psOutGND <<exitPoint>>
  state "12V" as psOut12V <<exitPoint>>
}

state VoltageConverter {
  state "GND" as vcInGND <<entryPoint>>
  state "12V" as vcIn12V <<entryPoint>>
  state "GND" as vcOutGND <<exitPoint>>
  state "5V" as vcOut5V <<exitPoint>>
}

psOutGND - - -> vcInGND
psOut12V - - -> vcIn12V

state BluePillSTM32F103 {
  state "GND" as bpInGND <<entryPoint>>
  state "5V" as bpIn5V <<entryPoint>>
  state "3V3" as bpOut3V3 <<exitPoint>>
  state "PA1 pin 11" as bpOutPWM <<exitPoint>>
  state "PA2 (TX2)  \n pin 12  " as bpOutTX <<exitPoint>>
  state "PA3 (RX2)  \n pin 13  " as bpOutRX <<exitPoint>>
}

vcOutGND - - -> bpInGND
vcOut5V - - -> bpIn5V

state GPSModule {
  state "GND" as gmInGND <<entryPoint>>
  state "3V3" as gmIn3V3 <<entryPoint>>
  state "RX" as gmInRX <<entryPoint>>
  state "TX" as gmInTX <<entryPoint>>
}

psOutGND - - -> gmInGND
bpOut3V3 - - -> gmIn3V3
bpOutTX - - -> gmInTX
bpOutRX - - -> gmInRX

state PWMAmplifier {
  state "GND sig" as paInSigGND <<entryPoint>>
  state "GND" as paInGND <<entryPoint>>
  state "12V" as paIn12V <<entryPoint>>
  state "PWM in" as paInPWN <<entryPoint>>
  state "OE output" as paOutOE <<exitPoint>>
}

psOutGND - - -> paInGND
psOutGND - - -> paInSigGND
psOut12V - - -> paIn12V
bpOutPWM - - -> paInPWN

state LEDOutputTerminal {
  state "GND" as lotInGND <<entryPoint>>
  state "12V" as lotIn12V <<entryPoint>>
}

paOutOE - - -> lotInGND
psOut12V - - -> lotIn12V

@enduml

PlantUML version 1.2022.5(Sat Apr 30 12:55:52 CEST 2022)
(GPL source distribution)
Java Runtime: OpenJDK Runtime Environment
JVM: OpenJDK 64-Bit Server VM
Default Encoding: UTF-8
Language: en
Country: GB
--></g></svg>